<svg width="33" height="33" viewBox="0 0 33 33" fill="none" xmlns="http://www.w3.org/2000/svg">
<path d="M8.25 25.5379C11.2832 25.5379 13.75 23.0711 13.75 20.0379V6.08849L26.125 10.5875V20.8037C25.2929 20.308 24.3435 20.0436 23.375 20.0379C20.3417 20.0379 17.875 22.5046 17.875 25.5379C17.875 28.5711 20.3417 31.0379 23.375 31.0379C26.4082 31.0379 28.875 28.5711 28.875 25.5379V9.62499C28.8752 9.34288 28.7884 9.06757 28.6265 8.83653C28.4646 8.6055 28.2355 8.42998 27.9702 8.33387L12.8452 2.83387C12.6376 2.75797 12.4147 2.7333 12.1955 2.76196C11.9763 2.79063 11.7673 2.87178 11.5861 2.99852C11.405 3.12526 11.2571 3.29385 11.1551 3.48996C11.053 3.68607 10.9998 3.90392 11 4.12499V15.3037C10.1679 14.808 9.21853 14.5436 8.25 14.5379C5.21675 14.5379 2.75 17.0046 2.75 20.0379C2.75 23.0711 5.21675 25.5379 8.25 25.5379Z" fill="#F6F6F6"/>
</svg>
